<svg width="11" height="12" viewBox="0 0 11 12" fill="none" xmlns="http://www.w3.org/2000/svg">
<path fill-rule="evenodd" clip-rule="evenodd" d="M0.361888 0.86201C0.622238 0.601661 1.04435 0.601661 1.3047 0.86201L5.49996 5.05727L9.69522 0.86201C9.95557 0.60166 10.3777 0.601661 10.638 0.862011C10.8984 1.12236 10.8984 1.54447 10.638 1.80482L6.44276 6.00008L10.638 10.1953C10.8984 10.4557 10.8984 10.8778 10.638 11.1382C10.3777 11.3985 9.95557 11.3985 9.69522 11.1382L5.49996 6.94289L1.3047 11.1382C1.04435 11.3985 0.622238 11.3985 0.361889 11.1382C0.101539 10.8778 0.101538 10.4557 0.361888 10.1953L4.55715 6.00008L0.361888 1.80482C0.101539 1.54447 0.101539 1.12236 0.361888 0.86201Z" fill="#9A9CA5"/>
</svg>
