<svg width="40" height="40" viewBox="0 0 40 40" fill="none" xmlns="http://www.w3.org/2000/svg">
<g clip-path="url(#clip0_1_1005)">
<path d="M39.9959 17.5638C39.4729 13.1194 37.435 8.92178 34.2576 5.74421C31.0802 2.56664 26.8827 0.528514 22.4383 0.00531195C22.2165 -0.0206255 21.9946 0.0492181 21.8279 0.197421C21.6612 0.345702 21.5658 0.558202 21.5658 0.781248V7.58483C21.5658 8.01623 21.9156 8.36608 22.347 8.36608C22.7784 8.36608 23.1283 8.01623 23.1283 7.58483V1.68046C30.9463 2.97312 37.0286 9.05576 38.3208 16.8739H23.1283V12.9747C23.1283 12.5433 22.7784 12.1935 22.347 12.1935C21.9156 12.1935 21.5658 12.5433 21.5658 12.9747V17.6551C21.5658 18.0865 21.9156 18.4364 22.347 18.4364H39.2201C39.4432 18.4364 39.6557 18.3411 39.8038 18.1743C39.952 18.0075 40.022 17.7854 39.9959 17.5638Z" fill="#7772F1"/>
<path d="M22.347 9.45557C21.9156 9.45557 21.5658 9.80541 21.5658 10.2368V10.2574C21.5658 10.6888 21.9156 11.0387 22.347 11.0387C22.7785 11.0387 23.1283 10.6888 23.1283 10.2574V10.2368C23.1283 9.80541 22.7784 9.45557 22.347 9.45557Z" fill="#7772F1"/>
<path d="M18.4047 34.5918C15.2516 34.5155 12.2668 33.4402 9.77295 31.4821C9.43342 31.2155 8.94241 31.2746 8.676 31.6141C8.40944 31.9534 8.46858 32.4445 8.80796 32.711C11.5688 34.8788 14.8743 36.0693 18.367 36.1537C18.3734 36.1539 18.3798 36.154 18.3862 36.154C18.8089 36.154 19.1565 35.8166 19.1669 35.3916C19.1774 34.9604 18.8361 34.6023 18.4047 34.5918Z" fill="#7772F1"/>
<path d="M21.3943 35.1719C21.3432 34.7435 20.954 34.4377 20.5261 34.4887L20.5094 34.4907C20.0811 34.5418 19.7751 34.9305 19.8262 35.3589C19.8736 35.756 20.2108 36.0477 20.601 36.0477C20.6319 36.0477 20.6631 36.0458 20.6945 36.0421L20.7111 36.0402C21.1395 35.9891 21.4454 35.6004 21.3943 35.1719Z" fill="#7772F1"/>
<path d="M37.0312 20.3125C37.0174 20.3125 37.0036 20.3129 36.99 20.3136H19.6875V2.96875C19.6875 2.53734 19.3376 2.1875 18.9062 2.1875C13.8561 2.1875 9.10842 4.15414 5.53749 7.72499C1.96664 11.2959 0 16.0436 0 21.0937C0 26.1438 1.96664 30.8915 5.53749 34.4624C9.10842 38.0333 13.8561 39.9999 18.9062 39.9999C23.9563 39.9999 28.704 38.0333 32.2749 34.4624C35.8458 30.8915 37.8124 26.1438 37.8124 21.0937C37.8124 20.6622 37.4626 20.3125 37.0312 20.3125ZM18.9062 38.4374C9.34287 38.4374 1.5625 30.6571 1.5625 21.0937C1.5625 11.7924 8.92311 4.17773 18.125 3.76742V21.0948C18.125 21.355 18.2527 21.5849 18.4483 21.7268C18.4482 21.7271 18.4481 21.7273 18.448 21.7275L32.4738 31.885C29.2935 35.8753 24.3937 38.4374 18.9062 38.4374ZM33.3918 30.6206L21.317 21.8761H36.2325C36.0889 25.0953 35.0627 28.0885 33.3918 30.6206Z" fill="#7772F1"/>
</g>
<defs>
<clipPath id="clip0_1_1005">
<rect width="40" height="40" fill="white"/>
</clipPath>
</defs>
</svg>
