<svg width="40" height="40" viewBox="0 0 40 40" fill="none" xmlns="http://www.w3.org/2000/svg">
<g clip-path="url(#clip0_1_1013)">
<path d="M31.8023 29.4538C31.657 29.3084 31.4555 29.2249 31.25 29.2249C31.0445 29.2249 30.843 29.3084 30.6977 29.4538C30.5523 29.5991 30.4688 29.8006 30.4688 30.0061C30.4688 30.2116 30.5523 30.4131 30.6977 30.5584C30.843 30.7045 31.0445 30.7874 31.25 30.7874C31.4555 30.7874 31.657 30.7045 31.8023 30.5584C31.9477 30.4131 32.0312 30.2116 32.0312 30.0061C32.0312 29.8006 31.9477 29.5992 31.8023 29.4538Z" fill="#7772F1"/>
<path d="M36.875 0.000976562H3.125C1.40188 0.000976562 0 1.40285 0 3.12598V27.6637C0 29.3868 1.40188 30.7887 3.125 30.7887H15.3906V34.7104C13.0991 34.9336 11.3021 36.8705 11.3021 39.2196C11.3021 39.6511 11.6519 40.0009 12.0834 40.0009H27.9167C28.3482 40.0009 28.698 39.6511 28.698 39.2196C28.698 36.8174 26.8187 34.8468 24.4532 34.6984V30.7887H28.0991C28.5305 30.7887 28.8803 30.4389 28.8803 30.0075C28.8803 29.576 28.5305 29.2262 28.0991 29.2262H3.125C2.26344 29.2262 1.5625 28.5253 1.5625 27.6637V3.12598C1.5625 2.26441 2.26344 1.56348 3.125 1.56348H36.875C37.7366 1.56348 38.4375 2.26441 38.4375 3.12598V27.6637C38.4375 28.5253 37.7366 29.2262 36.875 29.2262H33.9584C33.5269 29.2262 33.1771 29.576 33.1771 30.0075C33.1771 30.4389 33.5269 30.7887 33.9584 30.7887H36.875C38.5981 30.7887 40 29.3868 40 27.6637V3.12598C40 1.40277 38.5981 0.000976562 36.875 0.000976562ZM16.9531 30.7887H22.8906V34.6885H16.9531V30.7887ZM24.1666 36.251C25.5334 36.251 26.6873 37.1793 27.0312 38.4385H12.9688C13.3126 37.1793 14.4666 36.251 15.8333 36.251H24.1666Z" fill="#7772F1"/>
<path d="M20.4742 26.9545C20.3289 26.8092 20.1273 26.7256 19.9219 26.7256C19.7164 26.7256 19.5148 26.8092 19.3695 26.9545C19.2242 27.0998 19.1406 27.3014 19.1406 27.5068C19.1406 27.7131 19.2242 27.9139 19.3695 28.0592C19.5148 28.2053 19.7164 28.2881 19.9219 28.2881C20.1273 28.2881 20.3289 28.2053 20.4742 28.0592C20.6195 27.9139 20.7031 27.7131 20.7031 27.5068C20.7031 27.3014 20.6195 27.0998 20.4742 26.9545Z" fill="#7772F1"/>
<path d="M36.0938 3.13159H23.6719C23.2404 3.13159 22.8906 3.48136 22.8906 3.91284C22.8906 4.34433 23.2404 4.69409 23.6719 4.69409H35.3125V24.2253H4.6875V4.69409H16.6797C17.1112 4.69409 17.4609 4.34433 17.4609 3.91284C17.4609 3.48136 17.1112 3.13159 16.6797 3.13159H3.90625C3.47477 3.13159 3.125 3.48136 3.125 3.91284V25.0066C3.125 25.4381 3.47477 25.7878 3.90625 25.7878H36.0938C36.5252 25.7878 36.875 25.4381 36.875 25.0066V3.91284C36.875 3.48136 36.5252 3.13159 36.0938 3.13159Z" fill="#7772F1"/>
<path d="M20.7086 3.36025C20.5633 3.21494 20.3617 3.13135 20.1562 3.13135C19.9508 3.13135 19.7492 3.21494 19.6039 3.36025C19.4586 3.50557 19.375 3.70713 19.375 3.9126C19.375 4.11807 19.4586 4.31963 19.6039 4.46572C19.7492 4.61103 19.9508 4.69385 20.1562 4.69385C20.3617 4.69385 20.5633 4.61103 20.7086 4.46572C20.8539 4.31963 20.9375 4.11885 20.9375 3.9126C20.9375 3.70713 20.8539 3.50557 20.7086 3.36025Z" fill="#7772F1"/>
</g>
<defs>
<clipPath id="clip0_1_1013">
<rect width="40" height="40" fill="white"/>
</clipPath>
</defs>
</svg>
