<svg width="16" height="14" viewBox="0 0 16 14" fill="none" xmlns="http://www.w3.org/2000/svg">
<path fill-rule="evenodd" clip-rule="evenodd" d="M7.99957 12.272C4.93353 10.5257 3.2235 8.79004 2.39658 7.2841C1.55024 5.74277 1.62409 4.44459 2.09372 3.52322C3.05904 1.6294 5.8041 1.02382 7.47662 3.13914L7.99953 3.8005L8.52249 3.13917C10.1953 1.02376 12.9405 1.62945 13.9058 3.52322C14.3754 4.44457 14.4493 5.74275 13.6029 7.28408C12.7759 8.79003 11.0658 10.5257 7.99957 12.272ZM7.9996 1.73775C5.64679 -0.497993 2.17587 0.426034 0.905808 2.91772C0.20878 4.28519 0.199259 6.05261 1.22785 7.92585C2.24732 9.78247 4.27992 11.7422 7.67707 13.6199L7.99956 13.7981L8.32205 13.6199C11.7193 11.7422 13.752 9.78248 14.7716 7.92586C15.8002 6.05263 15.7908 4.28521 15.0937 2.91772C13.8236 0.425986 10.3526 -0.497959 7.9996 1.73775Z" fill="#7772F1"/>
</svg>
