<svg width="40" height="34" viewBox="0 0 40 34" fill="none" xmlns="http://www.w3.org/2000/svg">
<path d="M35.7812 11.6775V3.72534C35.7812 2.13144 34.4845 0.834717 32.8906 0.834717C32.2216 0.834717 31.6053 1.06386 31.1149 1.4469L22.7551 4.57823C22.351 4.72956 22.1462 5.1798 22.2975 5.58386C22.415 5.89769 22.7128 6.09128 23.0292 6.09128C23.1203 6.09128 23.2129 6.07526 23.3031 6.04136L30.0073 3.53011C30.003 3.59464 29.9999 3.65956 29.9999 3.72519V12.7877C29.9999 13.2191 30.3497 13.5689 30.7812 13.5689C31.2127 13.5689 31.5624 13.2191 31.5624 12.7877V3.72519C31.5624 2.99284 32.1582 2.39706 32.8905 2.39706C33.6229 2.39706 34.2187 2.99284 34.2187 3.72519V29.5064C34.2187 30.2388 33.6229 30.8346 32.8905 30.8346C32.1582 30.8346 31.5624 30.2388 31.5624 29.5064V20.0533C31.5624 19.6219 31.2127 19.2721 30.7812 19.2721C30.3497 19.2721 29.9999 19.6219 29.9999 20.0533V29.5064C29.9999 29.5721 30.0029 29.637 30.0073 29.7015L10.3125 22.3244V10.9076L18.2425 7.93722C18.6466 7.78589 18.8514 7.33565 18.7001 6.93159C18.5487 6.52753 18.0984 6.32229 17.6944 6.47409L9.38977 9.58479H4.60938C2.06773 9.58479 0 11.6525 0 14.1942V19.0379C0 21.5296 1.98766 23.5645 4.46055 23.6435L7.90297 32.6628C8.01852 32.9656 8.30891 33.1656 8.63289 33.1656H13.1641C13.4212 33.1656 13.6618 33.0392 13.8076 32.8274C13.9534 32.6157 13.9857 32.3459 13.8941 32.1058L10.8786 24.205L31.115 31.7852C31.6054 32.1682 32.2216 32.3974 32.8907 32.3974C34.4846 32.3974 35.7813 31.1007 35.7813 29.5067V21.5546C38.1684 21.1782 40 19.1072 40 16.616C40 14.1247 38.1684 12.0536 35.7812 11.6775ZM4.60938 22.0847C2.9293 22.0847 1.5625 20.7179 1.5625 19.0378V14.1941C1.5625 12.514 2.9293 11.1472 4.60938 11.1472H8.75V22.0847H5H4.60938ZM12.0297 31.6029H9.17086V31.603L6.13445 23.6472H8.99328L12.0297 31.6029ZM35.7812 19.9628V13.269C37.3014 13.6239 38.4375 14.9892 38.4375 16.6159C38.4375 18.2425 37.3014 19.608 35.7812 19.9628Z" fill="#7772F1"/>
</svg>
