<svg width="20" height="20" viewBox="0 0 20 20" fill="none" xmlns="http://www.w3.org/2000/svg">
<g filter="url(#filter0_d_2034_183)">
<path fill-rule="evenodd" clip-rule="evenodd" d="M11.8619 4.52876C12.1223 4.26841 12.5444 4.26841 12.8047 4.52876L15.8047 7.52876C16.0651 7.78911 16.0651 8.21122 15.8047 8.47157L12.8047 11.4716C12.5444 11.7319 12.1223 11.7319 11.8619 11.4716C11.6016 11.2112 11.6016 10.7891 11.8619 10.5288L13.7239 8.66683H4.66667C4.29848 8.66683 4 8.36835 4 8.00016C4 7.63197 4.29848 7.3335 4.66667 7.3335H13.7239L11.8619 5.47157C11.6016 5.21122 11.6016 4.78911 11.8619 4.52876Z" fill="white"/>
</g>
<defs>
<filter id="filter0_d_2034_183" x="-2" y="0" width="24" height="24" filterUnits="userSpaceOnUse" color-interpolation-filters="sRGB">
<feFlood flood-opacity="0" result="BackgroundImageFix"/>
<feColorMatrix in="SourceAlpha" type="matrix" values="0 0 0 0 0 0 0 0 0 0 0 0 0 0 0 0 0 0 127 0" result="hardAlpha"/>
<feOffset dy="4"/>
<feGaussianBlur stdDeviation="2"/>
<feColorMatrix type="matrix" values="0 0 0 0 0 0 0 0 0 0 0 0 0 0 0 0 0 0 0.25 0"/>
<feBlend mode="normal" in2="BackgroundImageFix" result="effect1_dropShadow_2034_183"/>
<feBlend mode="normal" in="SourceGraphic" in2="effect1_dropShadow_2034_183" result="shape"/>
</filter>
</defs>
</svg>
