<svg width="40" height="40" viewBox="0 0 40 40" fill="none" xmlns="http://www.w3.org/2000/svg">
<path d="M30.7812 18.8346C30.3498 18.8346 30 19.1844 30 19.6159V19.733C30 20.1645 30.3498 20.5143 30.7812 20.5143C31.2127 20.5143 31.5625 20.1644 31.5625 19.733V19.6159C31.5625 19.1844 31.2127 18.8346 30.7812 18.8346Z" fill="#7772F1"/>
<path d="M35.7812 14.6773V6.72522C35.7812 5.13131 34.4845 3.83459 32.8906 3.83459C32.2216 3.83459 31.6053 4.06374 31.1149 4.44678L22.7551 7.57811C22.351 7.72944 22.1462 8.17967 22.2975 8.58374C22.415 8.89756 22.7128 9.09116 23.0292 9.09116C23.1203 9.09116 23.2129 9.07514 23.3031 9.04123L30.0073 6.52999C30.003 6.59452 29.9999 6.65944 29.9999 6.72506V15.7876C29.9999 16.219 30.3497 16.5688 30.7812 16.5688C31.2127 16.5688 31.5624 16.219 31.5624 15.7876V6.72506C31.5624 5.99272 32.1582 5.39694 32.8905 5.39694C33.6229 5.39694 34.2187 5.99272 34.2187 6.72506V32.5063C34.2187 33.2387 33.6229 33.8344 32.8905 33.8344C32.1582 33.8344 31.5624 33.2387 31.5624 32.5063V23.0532C31.5624 22.6218 31.2127 22.2719 30.7812 22.2719C30.3497 22.2719 29.9999 22.6218 29.9999 23.0532V32.5063C29.9999 32.5719 30.0029 32.6369 30.0073 32.7014L10.3125 25.3243V13.9075L18.2425 10.9371C18.6466 10.7858 18.8514 10.3355 18.7001 9.93147C18.5487 9.52741 18.0984 9.32217 17.6944 9.47397L9.38977 12.5847H4.60938C2.06773 12.5847 0 14.6524 0 17.194V22.0378C0 24.5295 1.98766 26.5644 4.46055 26.6434L7.90297 35.6627C8.01852 35.9655 8.30891 36.1655 8.63289 36.1655H13.1641C13.4212 36.1655 13.6618 36.039 13.8076 35.8273C13.9534 35.6156 13.9857 35.3458 13.8941 35.1057L10.8786 27.2049L31.115 34.7851C31.6054 35.1681 32.2216 35.3972 32.8907 35.3972C34.4846 35.3972 35.7813 34.1005 35.7813 32.5066V24.5544C38.1684 24.1781 40 22.1071 40 19.6158C40 17.1246 38.1684 15.0535 35.7812 14.6773ZM4.60938 25.0846C2.9293 25.0846 1.5625 23.7178 1.5625 22.0377V17.194C1.5625 15.5139 2.9293 14.1471 4.60938 14.1471H8.75V25.0846H5H4.60938ZM12.0297 34.6028H9.17086V34.6029L6.13445 26.6471H8.99328L12.0297 34.6028ZM35.7812 22.9626V16.2689C37.3014 16.6237 38.4375 17.9891 38.4375 19.6158C38.4375 21.2424 37.3014 22.6079 35.7812 22.9626Z" fill="#7772F1"/>
<path d="M21.0713 8.69773C20.926 8.55242 20.7245 8.46875 20.519 8.46875C20.3135 8.46875 20.112 8.55234 19.9666 8.69773C19.8213 8.84297 19.7377 9.04453 19.7377 9.25C19.7377 9.45555 19.8213 9.65711 19.9666 9.80234C20.112 9.94766 20.3135 10.0312 20.519 10.0312C20.7245 10.0312 20.926 9.94773 21.0713 9.80234C21.2166 9.65711 21.3002 9.45555 21.3002 9.25C21.3002 9.04453 21.2166 8.84297 21.0713 8.69773Z" fill="#7772F1"/>
<path d="M5.70859 17.1627C5.56328 17.0167 5.36172 16.9338 5.15625 16.9338C4.95078 16.9338 4.74922 17.0167 4.60391 17.1627C4.45859 17.3081 4.375 17.5096 4.375 17.7151C4.375 17.9206 4.45859 18.1213 4.60391 18.2674C4.74922 18.4127 4.95078 18.4963 5.15625 18.4963C5.36172 18.4963 5.56328 18.4127 5.70859 18.2674C5.85391 18.1221 5.9375 17.9206 5.9375 17.7151C5.9375 17.5088 5.85391 17.3081 5.70859 17.1627Z" fill="#7772F1"/>
<path d="M6.5625 21.4127H4.0625C3.63102 21.4127 3.28125 21.7626 3.28125 22.194C3.28125 22.6254 3.63102 22.9752 4.0625 22.9752H6.5625C6.99398 22.9752 7.34375 22.6255 7.34375 22.194C7.34375 21.7625 6.99398 21.4127 6.5625 21.4127Z" fill="#7772F1"/>
</svg>
